<?xml version="1.0" encoding="UTF-8" standalone="no"?>
<!-- Created with Inkscape (http://www.inkscape.org/) -->

<svg
   width="512"
   height="512"
   viewBox="0 0 512 512"
   version="1.1"
   id="svg1"
   xml:space="preserve"
   xmlns="http://www.w3.org/2000/svg"
   xmlns:svg="http://www.w3.org/2000/svg"><defs
     id="defs1" /><path
     style="fill-opacity:1;stroke:none;stroke-width:2.00549"
     d="M 95.523495,2.2112075 C 55.30715,7.972481 20.088685,31.470797 7.3388527,71.544772 -2.3788061,102.08835 1.265103,136.19619 1.265103,167.80867 v 168.4618 c 0,45.5561 -6.8255108,95.48734 21.908819,134.36834 26.319771,35.61381 67.650411,40.10997 108.448538,40.10997 h 188.51678 c 34.08096,0 70.66515,3.74058 104.28588,-2.17419 35.37321,-6.2231 66.43291,-29.66701 78.81792,-64.00724 11.9858,-33.23333 7.41847,-71.57678 7.41847,-106.29139 V 149.75918 c 0,-39.28389 2.09279,-77.494714 -23.42377,-110.300847 C 460.21281,4.7128852 418.80204,1.3523531 378.29867,1.3523531 H 191.78739 c -31.36105,0 -65.21262,-3.5894198 -96.263895,0.8588544 M 183.7654,141.73719 c 25.7197,-14.2623 48.47706,-25.04656 78.2144,-27.73497 13.67182,-1.23598 28.95125,1.92436 42.11546,5.44395 116.40087,31.1209 129.35326,197.76864 22.06048,249.34557 -19.45476,9.35206 -40.60448,13.84569 -62.17044,13.59746 -22.08985,-0.25437 -45.13924,-6.97272 -64.17592,-18.04176 0,11.54301 5.01914,38.77652 -4.64855,46.92185 -10.80439,9.103 -58.66063,7.41816 -61.23577,-8.8267 -3.33289,-21.02491 -0.29711,-44.87761 -0.29711,-66.17212 V 203.90761 c 0,-22.6714 -7.47459,-61.08468 1.21009,-82.00719 11.63188,-28.022646 43.72252,6.08483 48.92736,19.83677 m 70.19242,41.04153 c -50.33076,9.0745 -70.60516,73.30635 -37.16671,111.18909 15.98412,18.10854 42.16711,23.44267 65.24367,19.58915 84.52296,-14.11438 56.69228,-146.06196 -28.07696,-130.77824 z"
     id="path2"
     fill="currentColor" /></svg>
