<?xml version="1.0" encoding="UTF-8" standalone="no"?>
<!-- Created with Inkscape (http://www.inkscape.org/) -->

<svg
   width="512"
   height="512"
   viewBox="0 0 512 512"
   version="1.1"
   id="svg1"
   xml:space="preserve"
   xmlns="http://www.w3.org/2000/svg"
   xmlns:svg="http://www.w3.org/2000/svg">
   <defs id="defs1" />
   <path
     fill="currentColor"
     style="fill-opacity:1;stroke:none;stroke-width:0.230923"
     d="m 12.817032,330.17414 c 0.519279,3.51616 2.116397,7.05459 3.304017,10.39153 2.136699,6.0036 4.396397,11.96807 7.016953,17.78106 10.525517,23.34795 24.048263,45.0759 40.878867,64.42747 19.212699,22.09046 42.333251,41.00246 67.956361,55.22265 82.23891,45.64063 185.99492,41.99988 264.40667,-10.27466 24.79314,-16.52874 46.54901,-37.36407 64.22329,-61.34351 19.29192,-26.17411 33.50799,-56.20373 41.39472,-87.75068 8.00127,-32.00515 9.68601,-65.01981 5.39083,-97.68037 -3.53171,-26.85496 -11.78919,-53.38056 -23.89391,-77.59008 C 470.26011,116.88807 452.65568,92.711392 431.24924,72.242386 414.22095,55.959789 394.81404,42.071266 373.98038,31.078415 298.05192,-8.9851788 204.68261,-7.0265628 130.12585,35.187668 99.102127,52.753365 72.03043,77.039252 50.892581,105.71713 29.153055,135.21131 14.771554,168.87232 6.9459645,204.5521 c -1.819413,8.29538 -2.96295,16.73562 -3.866,25.1706 -0.244849,2.28704 -0.591047,4.6284 -0.651073,6.92768 -0.01817,0.69621 -0.27671,1.84223 0.04223,2.47673 0.367666,0.73141 1.570472,0.98489 2.263612,1.2829 2.139316,0.91983 4.303682,1.79518 6.4658395,2.66007 8.421888,3.36887 16.769309,6.92596 25.170592,10.34608 23.592469,9.60436 47.069673,19.49181 70.662395,29.09628 6.70587,2.72992 13.41397,5.47041 20.09029,8.2719 3.55107,1.49009 7.3449,3.61846 11.0843,4.5324 1.69482,0.41423 3.88473,-1.70748 5.31122,-2.48082 4.29188,-2.32667 8.75712,-4.17854 13.39353,-5.68968 5.5254,-1.80088 11.13185,-2.41517 16.85737,-3.09074 1.88717,-0.22266 5.20924,0.68271 6.85249,-0.30325 1.19719,-0.71831 2.15021,-2.77559 2.92253,-3.91929 1.93188,-2.86086 3.88579,-5.71444 5.86305,-8.54415 7.38645,-10.57092 14.55129,-21.29649 21.93767,-31.86735 7.27815,-10.41592 14.47117,-20.90033 21.61997,-31.40551 3.0632,-4.50136 7.06968,-8.98187 9.49048,-13.85537 0.85192,-1.71507 0.33835,-4.36076 0.36064,-6.23492 0.0391,-3.28755 0.51673,-6.67954 1.0208,-9.92968 1.63955,-10.57155 4.98492,-20.74506 9.89138,-30.2509 21.50841,-41.67055 71.23375,-61.154413 115.40172,-47.10166 9.43015,3.00036 18.29946,7.78248 26.32521,13.52054 7.66009,5.47664 14.56937,12.2041 20.23479,19.72575 27.36704,36.33368 26.06383,87.793 -4.13612,122.15819 -13.31615,15.15273 -31.11331,25.85753 -50.7371,30.50854 -4.94474,1.17195 -10.16232,2.05102 -15.24091,2.27343 -2.52921,0.11075 -6.99491,-0.57858 -9.23691,0.56767 -3.33336,1.70421 -6.4191,4.55413 -9.46784,6.73363 l -19.39752,13.85537 c -19.16065,13.69777 -38.34261,27.36526 -57.49979,41.06796 -3.03306,2.16947 -1.75402,4.90869 -2.14424,8.21592 -0.79078,6.70212 -1.82943,13.28702 -4.27796,19.62844 -7.45648,19.3114 -22.67927,34.88415 -42.30252,41.86813 -28.80756,10.25273 -61.19232,0.44127 -79.74821,-23.85615 -4.13658,-5.41654 -7.49144,-11.61312 -9.83757,-18.01198 -0.77932,-2.12555 -1.40643,-4.29076 -2.02361,-6.46584 -0.2419,-0.85252 -0.32573,-2.1748 -1.06319,-2.75399 -2.52286,-1.98139 -6.8783,-2.98193 -9.857173,-4.17369 -6.64349,-2.6579 -13.261194,-5.41153 -19.859367,-8.18029 -14.435045,-6.05736 -28.942487,-11.94549 -43.413497,-17.91648 -7.373822,-3.04259 -14.939667,-7.13098 -22.63044,-9.23443 M 337.26365,127.98373 c -4.81961,0.63275 -9.56492,0.72992 -14.31722,2.01522 -15.8877,4.29693 -29.744,14.35857 -38.46593,28.36858 -18.07259,29.03001 -9.62254,68.26561 18.60657,87.51317 6.27418,4.27796 13.40657,7.41312 20.78305,9.21357 7.52972,1.83786 15.41399,2.30509 23.09229,1.34974 31.11691,-3.87157 55.1991,-30.35469 56.56702,-61.59067 1.27098,-29.02239 -18.50619,-56.35044 -46.40642,-64.3603 -6.06787,-1.74201 -13.53294,-3.3399 -19.85936,-2.50931 m -1.38554,16.13252 c 5.65322,-0.66703 11.90468,0.30418 17.31922,1.91757 5.56898,1.65942 10.86882,4.37702 15.47183,7.92016 20.58624,15.84615 24.67455,46.03841 9.52664,66.99365 -3.52087,4.87066 -7.97124,8.88297 -12.99049,12.15944 -5.99801,3.9154 -12.99611,6.3123 -20.09028,7.17214 -5.87193,0.71171 -12.0498,0.38517 -17.78106,-1.12431 -6.2345,-1.64203 -12.19322,-4.39644 -17.31922,-8.33194 -19.82604,-15.22146 -24.86747,-44.16039 -11.08359,-65.0659 3.24563,-4.9225 7.40458,-9.36596 12.23821,-12.76525 7.51376,-5.28411 15.6771,-7.80991 24.70874,-8.87556 M 158.52936,303.38709 c 0.85309,1.25026 3.24503,1.74494 4.61845,2.31171 3.77126,1.55636 7.56727,3.06956 11.31523,4.68083 13.548,5.82438 27.16731,9.90009 35.31694,23.25835 10.39614,17.04057 5.74005,39.88082 -9.91543,52.03496 -6.90874,5.36363 -15.33843,8.09172 -24.01598,8.45775 -7.20058,0.30371 -14.05895,-2.47943 -20.55213,-5.20416 -8.76457,-3.67786 -17.56105,-7.88943 -26.55613,-10.95136 1.60635,5.57626 6.38739,11.00585 10.39153,15.00999 15.1658,15.16581 38.16846,20.03887 58.19256,12.28254 7.02637,-2.72163 13.59516,-6.96016 18.9266,-12.29162 19.73299,-19.73311 20.73513,-52.36272 3.02942,-73.65532 -6.62356,-7.96537 -15.41995,-13.53599 -25.18894,-16.78041 -8.53764,-2.83546 -17.75129,-3.18627 -26.55613,-1.59543 -3.08658,0.55769 -5.97097,1.74001 -9.00599,2.44217 z"
     id="path1"/>
</svg>
